<?xml version="1.0" encoding="UTF-8"?>
<svg id="Layer_2" data-name="Layer 2" xmlns="http://www.w3.org/2000/svg" viewBox="0 0 886.8 216.47">
  <defs>
    <style>
      .cls-1 {
        fill: #6044fa;
      }

      .cls-2 {
        fill: #3d3d3d;
      }

      .cls-3 {
        fill: #3d31af;
      }
    </style>
  </defs>
  <g id="Layer_3" data-name="Layer 3">
    <g>
      <path class="cls-2" d="M315.07,141.81c0,21.6-16.92,34.2-49.32,34.2h-50.64V50.01h47.04c30.24,0,46.44,12.78,46.44,32.76,0,12.96-6.48,22.5-16.2,27.72,13.5,4.32,22.68,14.94,22.68,31.32Zm-76.56-73.44v34.74h21.12c16.2,0,25.38-5.76,25.38-17.28s-9.18-17.46-25.38-17.46h-21.12Zm52.98,71.1c0-12.6-9.54-18.18-27.18-18.18h-25.8v36.36h25.8c17.64,0,27.18-5.58,27.18-18.18Z"/>
      <path class="cls-2" d="M334.87,50.55c0-7.56,6.12-13.5,14.4-13.5s14.4,5.58,14.4,12.96c0,7.92-5.94,14.04-14.4,14.04s-14.4-5.94-14.4-13.5Zm3.06,29.34h22.5v96.12h-22.5V79.89Z"/>
      <path class="cls-2" d="M451.15,176.01l-24.66-33.3-24.84,33.3h-24.84l37.44-48.78-35.82-47.34h25.02l23.58,31.5,23.58-31.5h24.3l-36,46.98,37.62,49.14h-25.38Z"/>
      <path class="cls-2" d="M595.2,141.81c0,21.6-16.92,34.2-49.32,34.2h-50.64V50.01h47.04c30.24,0,46.44,12.78,46.44,32.76,0,12.96-6.48,22.5-16.2,27.72,13.5,4.32,22.68,14.94,22.68,31.32Zm-76.56-73.44v34.74h21.12c16.2,0,25.38-5.76,25.38-17.28s-9.18-17.46-25.38-17.46h-21.12Zm52.98,71.1c0-12.6-9.54-18.18-27.18-18.18h-25.8v36.36h25.8c17.64,0,27.18-5.58,27.18-18.18Z"/>
      <path class="cls-2" d="M708.06,135.15h-75.42c2.7,14.04,14.4,23.04,31.14,23.04,10.8,0,19.26-3.42,26.1-10.44l12.06,13.86c-8.64,10.26-22.14,15.66-38.7,15.66-32.22,0-53.1-20.7-53.1-49.32s21.06-49.14,49.68-49.14,48.6,19.62,48.6,49.68c0,1.8-.18,4.5-.36,6.66Zm-75.6-14.94h54.54c-1.8-13.86-12.42-23.4-27.18-23.4s-25.2,9.36-27.36,23.4Z"/>
      <path class="cls-2" d="M787.8,170.79c-5.4,4.32-13.5,6.48-21.6,6.48-21.06,0-33.12-11.16-33.12-32.4v-46.26h-15.84v-18h15.84v-21.96h22.5v21.96h25.74v18h-25.74v45.72c0,9.36,4.68,14.4,13.32,14.4,4.68,0,9.18-1.26,12.6-3.96l6.3,16.02Z"/>
      <path class="cls-2" d="M886.8,119.67v56.34h-21.24v-11.7c-5.4,8.28-15.84,12.96-30.24,12.96-21.96,0-35.82-12.06-35.82-28.8s10.8-28.62,39.96-28.62h24.84v-1.44c0-13.14-7.92-20.88-23.94-20.88-10.8,0-21.96,3.6-29.16,9.54l-8.82-16.38c10.26-7.92,25.2-11.88,40.68-11.88,27.72,0,43.74,13.14,43.74,40.86Zm-22.5,26.28v-11.16h-23.22c-15.3,0-19.44,5.76-19.44,12.78,0,8.1,6.84,13.32,18.36,13.32s20.52-5.04,24.3-14.94Z"/>
    </g>
    <g id="_10" data-name="10">
      <path class="cls-3" d="M28.85,67.65L3.51,42.31c-4.69-4.69-4.69-12.28,0-16.97L28.85,0,62.68,33.82,28.85,67.65Zm62.54-5.1l-25.34-25.34-33.82,33.82,33.82,33.82,25.34-25.34c4.69-4.69,4.69-12.28,0-16.97Zm-28.72,45.69L28.85,74.41,3.51,99.75c-4.69,4.69-4.69,12.28,0,16.97l25.34,25.34,33.82-33.82Zm28.72,28.72l-25.34-25.34-33.82,33.82,33.82,33.82,25.34-25.34c4.69-4.69,4.69-12.28,0-16.97Zm-28.72,45.69l-33.82-33.82L3.51,174.16c-4.69,4.69-4.69,12.28,0,16.97l25.34,25.34,33.82-33.82Z"/>
      <path class="cls-1" d="M103.26,67.65l-25.34-25.34c-4.69-4.69-4.69-12.28,0-16.97L103.26,0l33.82,33.82-33.82,33.82Zm62.54-5.1l-25.34-25.34-33.82,33.82,33.82,33.82,25.34-25.34c4.69-4.69,4.69-12.28,0-16.97Zm-28.72,45.69l-33.82-33.82-25.34,25.34c-4.69,4.69-4.69,12.28,0,16.97l25.34,25.34,33.82-33.82Zm28.72,28.72l-25.34-25.34-33.82,33.82,33.82,33.82,25.34-25.34c4.69-4.69,4.69-12.28,0-16.97Zm-28.72,45.69l-33.82-33.82-25.34,25.34c-4.69,4.69-4.69,12.28,0,16.97l25.34,25.34,33.82-33.82Z"/>
    </g>
  </g>
</svg>