<?xml version="1.0" encoding="UTF-8"?><svg xmlns="http://www.w3.org/2000/svg" xmlns:xlink="http://www.w3.org/1999/xlink" viewBox="0 0 1306.45 1177.2"><defs><filter id="c" filterUnits="userSpaceOnUse"><feOffset dx="1.86" dy=".93"/><feGaussianBlur result="d" stdDeviation="0"/><feFlood flood-color="#000" flood-opacity=".04"/><feComposite in2="d" operator="in"/><feComposite in="SourceGraphic"/></filter><filter id="e" filterUnits="userSpaceOnUse"><feOffset dx="2.78" dy=".93"/><feGaussianBlur result="f" stdDeviation="0"/><feFlood flood-color="#000" flood-opacity=".14"/><feComposite in2="f" operator="in"/><feComposite in="SourceGraphic"/></filter></defs><g id="a"><path d="m234.8,729.99c-12.59-25.53-35.05-35.53-60.23-35.53-8.85,0-36.07,1.03-55.81,22.08-13.27,14.15-18.72,34.84-18.72,54.17,0,25.88,9.19,41.4,15.65,49.68,19.06,24.84,44.24,25.53,55.13,25.53,35.39,0,59.21-19.32,66.02-40.71l82.01,8.62c-2.72,8.97-9.19,28.98-27.22,47.61-30.97,31.74-80.99,39.67-122.84,39.67-45.26,0-71.12-8.62-89.16-17.25-23.82-11.38-69.76-41.4-69.76-112.82,0-25.53,7.83-132.14,161.64-132.14,65.33,0,102.43,17.25,122.5,39.68,13.27,14.49,18.38,30.71,20.42,37.26l-79.63,14.15Z" fill="#fff"/><path d="m589.03,874.2c-31.31,21.39-65.68,26.91-108.21,26.91-51.04,0-81.67-11.73-101.41-23.12-51.04-30.01-56.83-80.38-56.83-103.15,0-61.41,31.31-93.15,52.06-107.3,20.42-14.15,52.74-27.26,106.51-27.26,85.07,0,119.44,26.91,139.18,55.89,7.83,11.73,21.78,36.92,21.78,73.83,0,21.73-4.42,70.73-53.08,104.19Zm-105.83-179.75c-49.68,0-72.14,36.92-72.14,76.59,0,32.78,17.01,76.25,72.48,76.25,60.23,0,70.1-49.68,70.1-76.59s-12.25-76.25-70.44-76.25Z" fill="#fff"/><path d="m831.31,649.26c38.11,0,73.5,1.38,90.86,36.92,3.74,7.94,8.51,20.35,8.51,40.71,0,11.73-1.36,44.16-30.63,63.83-23.14,15.87-56.49,16.21-82.69,16.21h-64.99v85.91h-85.75v-243.57h164.7Zm-78.95,102.81h56.15c9.87,0,14.63,0,19.4-1.38,10.55-2.76,16.67-11.04,16.67-22.42,0-6.21-2.04-10.35-3.06-12.42-5.79-10.35-16.33-11.38-26.54-11.38h-62.61v47.61Z" fill="#fff"/><path d="m1080.05,649.26c77.25,0,105.83,25.53,123.18,50.72,20.42,29.67,21.1,60.72,21.1,73.83,0,14.83-.68,73.14-52.4,101.77-22.46,12.42-41.86,17.25-75.88,17.25h-152.45v-243.57h136.46Zm-7.15,188.37c66.7,0,67.38-54.51,67.38-65.89,0-7.59-1.02-35.19-22.12-51.41-16.33-12.77-39.47-13.11-47.98-13.11h-42.54v130.41h45.26Z" fill="#fff"/><path d="m25.8,928.29v59.02h37.88v9.33H25.8v75.3h-10.27v-153.2h53.29v9.55H25.8Z" fill="#fff"/><path d="m133.46,950.64c0-18.88,9.2-33.63,30.61-33.63,28.47,0,30.61,20.83,30.61,37.54v87.45c0,13.89-5.78,31.9-31.04,31.9-22.47,0-30.18-13.24-30.18-33.63v-89.62Zm51.15,7.16c0-24.3-8.13-31.25-20.55-31.25-14.98,0-20.33,11.72-20.33,23.22v90.05c0,15.41,6.21,24.52,20.55,24.52,17.34,0,20.33-15.19,20.33-26.26v-80.29Z" fill="#fff"/><path d="m273.01,918.74h10.27v118.7c0,14.11,1.71,27.12,20.12,27.12,15.84,0,19.26-10.42,19.26-25.61v-120.22h10.49v122.82c0,24.52-13.48,32.98-30.39,32.98-15.41,0-29.75-7.59-29.75-32.98v-122.82Z" fill="#fff"/><path d="m458.14,1071.94l-35.1-144.74s.86,129.11.86,144.74h-10.06v-153.2h15.41l36.17,147.34s-1.5-138.88-1.5-147.34h10.27v153.2h-16.05Z" fill="#fff"/><path d="m569.23,918.74c13.7,0,27.4,1.08,37.03,12.59,8.35,10.2,10.27,24.09,10.27,50.13v43.18c0,15.62-3.64,47.31-40.45,47.31h-19.91v-153.2h13.06Zm-2.57,143.65h8.56c22.26,0,31.04-13.02,31.04-43.62v-37.54c0-10.85-.21-29.08-5.35-38.84-6.63-12.37-19.48-13.89-26.33-13.89h-7.92v133.89Z" fill="#fff"/><path d="m743.66,1071.94l-7.71-46.65h-31.68l-7.92,46.65h-11.13l27.61-154.07h14.55l27.4,154.07h-11.13Zm-23.54-139.96l-14.13,83.33h28.04l-13.91-83.33Z" fill="#fff"/><path d="m842.12,928.29v143.65h-10.7v-143.65h-26.33v-9.55h63.78v9.55h-26.75Z" fill="#fff"/><path d="m935.01,1071.94v-153.2h10.92v153.2h-10.92Z" fill="#fff"/><path d="m1024.04,950.64c0-18.88,9.2-33.63,30.61-33.63,28.47,0,30.61,20.83,30.61,37.54v87.45c0,13.89-5.78,31.9-31.03,31.9-22.47,0-30.18-13.24-30.18-33.63v-89.62Zm51.15,7.16c0-24.3-8.13-31.25-20.55-31.25-14.98,0-20.33,11.72-20.33,23.22v90.05c0,15.41,6.21,24.52,20.55,24.52,17.34,0,20.33-15.19,20.33-26.26v-80.29Z" fill="#fff"/><path d="m1207.47,1071.94l-35.1-144.74s.86,129.11.86,144.74h-10.06v-153.2h15.41l36.17,147.34s-1.5-138.88-1.5-147.34h10.27v153.2h-16.05Z" fill="#fff"/></g><g id="b"><path d="m646.19,299.29l134.14-56.92-61.4-144.63-78.93,195.36c2.39,1.71,4.47,3.8,6.19,6.19h0Zm-117.52,233.97l78.93-195.36c-2.39-1.73-4.47-3.81-6.19-6.19l-134.13,56.92,61.39,144.63h0Zm72.74-233.95c1.73-2.38,3.81-4.47,6.2-6.2l-56.95-134.13-144.62,61.4,195.36,78.94h0Zm44.79,32.38c-1.72,2.39-3.81,4.48-6.2,6.19l56.94,134.13,144.65-61.38-195.38-78.95h0Z" fill="#1c3664"/><path d="m627.17,287.93l81.93-202.8L498.39,0l122.23,287.93c1.39-.17,2.77-.23,4.17-.17.8.01,1.6.08,2.38.17h0Zm-30.94,24.19l-202.8-81.96-85.13,210.74,287.93-122.24c-.16-1.39-.24-2.79-.18-4.13.03-.81.08-1.61.18-2.4h0Zm24.19,30.92l-81.95,202.82,210.72,85.13-122.21-287.93c-1.39.15-2.79.23-4.17.19-.79-.04-1.58-.1-2.4-.21h0Zm30.94-24.17l202.8,81.94,85.14-210.74-287.94,122.22c.16,1.41.23,2.79.18,4.19-.03.78-.1,1.59-.18,2.38h0Z" fill="#f36c31"/><g filter="url(#c)"><path d="m720.5,334.53c-1.43,1.3-2.78,2.76-4.45,3.67-1.91,1.05-4.12,1.58-6.45,2.43-1.04.28-2.34-.7-3.51-1.28-.73-.36-1.01-1.19-.33-1.79.81-.73,1.66-1.52,2.65-1.92,3.01-1.21,6.05-2.39,9.44-2.44.73-.01,1.47.13,2.21.18,1.05.08.98.67.45,1.15Zm-184.18,1.11c-3.01-1.21-6.05-2.39-9.44-2.44-.73-.01-1.47.13-2.21.18-1.05.08-.98.67-.45,1.15,1.43,1.3,2.78,2.76,4.45,3.67,1.91,1.05,4.12,1.58,6.45,2.43,1.04.28,2.34-.7,3.51-1.28.73-.36,1.01-1.19.33-1.79-.81-.73-1.66-1.52-2.65-1.92Zm174.52,81.75c-32.9-15.3-53.97-3.9-62.95-43.76-4.95-21.99-7-56.77-7.14-73.53-7.79-8.02-14.28-12.58-18.38-12.58s-10.6,4.56-18.38,12.58c-.13,16.76-2.18,51.55-7.14,73.53-8.98,39.86-30.06,28.46-62.95,43.76-34.33,15.97-34.64-44.27-32.68-79.9,3.19-57.74,52.97-103.42,75.8-108.4,9.2-2.01,18.91,7.7,23.95,36.81,3.29-4,5.55-7.41,6.65-10.07,3.32-8.02,3.45-30.57.36-60.34-.29-2.79.62-5.59,2.5-7.67,1.88-2.08,4.56-3.28,7.37-3.28h9.05c2.8,0,5.49,1.19,7.37,3.28,1.88,2.08,2.79,4.88,2.5,7.67-3.09,29.77-2.96,52.33.36,60.34,1.1,2.66,3.37,6.07,6.65,10.07,5.04-29.11,14.74-38.82,23.95-36.81,22.82,4.98,72.61,50.67,75.8,108.4,1.97,35.63,1.66,95.86-32.68,79.9Zm22.32-53.37c0-.4-.14-.8-.19-1.21-.25-2.19-1.1-3.85-3.12-4.66-1.51-.61-2.67-1.39-2.85-3.34-.13-1.37-.83-2.74-1.28-4.1-.24-.74-.52-1.47-.72-2.21-.09-.32-.3-.85,0-1.01.3-.14.75.11,1.03.52.55.83,1.35,1.48,1.96,2.27,1.11,1.41,2.33,2.75,3.28,4.27.37.58,1.08.95,1.41.65.6-.39.28-1.07.06-1.65-.13-.35-.41-.71-.64-1.06-.66-1-1.34-1.99-2-2.99-1.8-2.7-3.93-5.01-6.63-6.81-1.07-.71-1.96-1.78-2.81-2.79-.3-.36-.42-1.13-.27-1.55.89-2.49,3.31-3.54,5.99-2.79,1.82.51,3.54.41,5.09-.85.53-.41-1.13-.77-1.47-.78-1.11-.04-1.53-.1-2.23-.56-1.23-.81-.82-1.13.11-2.08.74-.76,1.4-1.62,1.99-2.51.14-.21.25-.83-.29-1.13-.07-.04-.5-.07-.67.05-1.32.97-2.63,1.96-3.93,2.96-.61.46-1.22.52-1.97.13-.68-.35-1.42-.57-2.15-.79-2.56-.76-5.07-.48-7.54-.07-.57.09-1.2.28-2.29.71-4.05,1.59-7.77,3.36-12.33,3.25-3.92-.1-7.3-1.4-10.91-3.15-1.72-.83-3.49-1.91-4.96-3.11-2.91-2.36-4.19-5.53-4.67-8.82-.53-3.67,1.19-6.63,4.2-8.63,1.83-1.23,3.86-2.02,6.13-2.45,2.61-.5,5.22-.72,7.73.11,2.25.75,4.39,2.04,6.43,3.35,1.74,1.12,5.31,4.52,7.03,7.19,1.08,1.67,2.73,3.72,4.2,5.06,2.14,1.95,8.9,2.76,11.44,2.33.38-.06.85-.6.91-1,.11-.71-.34-1.16-1.12-1.18-.98-.02-1.95-.11-2.93-.14-2.48-.09-6.31-1.72-8.27-4.71-1.02-1.55-1.76-3.27-2.82-4.78-1.05-1.5-2.32-2.83-3.48-4.24-.37-.45-.52-.9.08-1.29,1.86-1.21,3.85-1.2,5.9-.29,1.89.84,2.88,2.64,4.15,4.16,1.09,1.3,2.14,2.66,3.38,3.79,1.78,1.62,4.1.66,6.08,1.4.61.23,1.27-.04,1.3-.78-.03-.62-.75-1.32-1.29-1.61-.67-.36-1.53-.28-2.29-.49-1.5-.43-3.03-.7-4.05-2.3-.78-1.23-1.88-2.26-2.83-3.37-.38-.44-.75-.88-1.13-1.32.6.05,1.2.1,1.8.17.15.02.3.11.45.17,1.62.66,3.23,1.39,4.88,1.95.72.25,1.55.23,2.31.16.96-.08.99-1.34.63-1.63-.23-.18-.65-.29-.88-.3-2.01-.1-3.75-.86-5.2-2.4-.21-.22-.44-.41-.66-.62.3-.13.6-.31.91-.37,1.67-.29,3.36-.53,5.03-.85.3-.06.64-.3.78-.64.28-.47-.35-.96-.94-.96-1.11,0-2.24-.16-3.36-.27-.36-.03-.71-.2-1.07-.31.18-.27.33-.57.55-.8,1.1-1.14,2.27-2.21,2.45-4,.07-.71-.22-.93-.79-.82-.4.08-.85.23-1.14.5-.95.9-1.78,1.93-2.75,2.8-1.28,1.14-2.51,2.48-4.03,3.18-2.49,1.14-5.15,1.95-7.81,2.66-2.06.54-4.17.26-6.35-.24-.9-.21-1.89-.91-1.69-1.86.08-.4.35-1.21.75-1.64,1.59-1.7,3.71-2.58,5.75-3.59,3.56-1.78,7.39-2.33,11.38-2.34,1.7,0,3.52-.44,5.27-.74.64-.11.49-1.56-.22-1.72-1.14-.25-3.96-.23-4.27-.26-.55-.05-.84-.25-.42-.83.5-.68.78-1.59,1.45-2.09.48-.35.79-.8.5-1.34-.41-.45-.97-.24-1.55.3-.16.14-.35.29-.53.43-.88.68-1.68,1.52-2.66,1.99-1.78.86-3.65,1.56-5.52,2.23-2.58.92-5.4,1.12-7.74,2.8-2.3,1.64-4.82,2.94-6.71,5.15-.93,1.08-2.34,1.29-3.76,1.03-.97-.18-1.59-1.44-1.23-2.34,1.22-2.99,3.14-5.5,5.2-7.91,1.11-1.31,2.6-1.66,4.26-1.43,1.19.16,2.37.48,3.56.56,1.12.07,2.29.11,3.34-.16,1.51-.4,2.93-1.11,4.39-1.68,2.34-.92,3.31-1.19,5.99-1.45,1.96-.19,2.65-1.15,2.31-1.81-.43-.86-1.42-.74-2.7-.44-1.6.37-3.15.92-4.74,1.36-2.4.65-4.8,1.31-7.23,1.86-.42.1-1.3-.1-1.46-.46-.17-.61.52-.91,1.31-.87.72.04,7.07-2.05,9.43-3.21.95-.47,1.49-1.67,2.43-2.23.28-.16.67-.87.37-1.25-.21-.21-1.05.26-1.3.41-.73.43-1.4.95-2.13,1.36-.24.13-.58.28-.9.05-.18-.25.11-.73.31-.94.58-.61,1.28-1.1,1.85-1.71.72-.79.97-1.41.63-1.81-.31-.39-1.26-.07-1.58.32-.92,1.1-2.33,1.89-2.93,3.15-1.17,2.44-3.05,3.33-5.5,3.48-.53.03-.83-.07-.54-.75.47-1.11.92-2.25,1.22-3.43.74-2.88,2.83-4.33,5.27-5.4.49-.22.77-.43.52-.91-.14-.26-.6-.55-.85-.51-1.79.29-3.46,1.09-4.57,2.46-1.5,1.84-2.68,3.97-3.92,6.02-.84,1.39-1.55,2.87-3.03,3.69-.72.4-1.27.21-1.6-.58-.98-2.39-.02-4.38,1.26-6.15,1.47-2.04,3.57-3.33,5.93-4.17.41-.15,1.82-.98,1.37-1.81-.33-.61-1.28-.62-2.25-.07-1.66.93-3.31,1.89-4.97,2.82-.24.13-.51.2-.76.3.04-.29.01-.61.13-.86.27-.55.68-1.04.9-1.6.77-2,1.85-3.72,3.76-4.74.47-.25,1.05-.38,1.42-.74.32-.3.64-.92.54-1.29-.15-.6-.72-.94-1.4-.66-.53.22-1.06.43-1.59.64-.94.38-1.19.16-1.27-.86-.09-1.09-.28-2.17-.44-3.25-.09-.64-.38-1.35-1.05-1.11-.45.15-.91.87-.98,1.4-.11.92.15,1.88.12,2.82-.04,1.37,0,2.8-.36,4.07-.45,1.55-1.42,2.92-1.96,4.46-.53,1.53-1.04,3.14-1.14,4.75-.19,2.87-.42,5.76-1.8,8.23-1.6,2.85-3.54,5.49-5.38,8.18-.22.33-.71.46-1.07.69-.16-.38-.5-.8-.45-1.14.38-2.66-.08-5.48,1.66-7.89.93-1.3,1.32-3.03,1.84-4.61.63-1.91,1.07-3.89,1.72-5.8.41-1.21.86-2.47,1.6-3.47,2.8-3.78,3.4-8.08,2.79-12.7-.11-.85-.22-1.8-.66-2.49-.38-.6-1.28-1.31-1.85-1.24-.82.1-.64,1.14-.57,1.89.17,1.89.36,3.77.47,5.66.1,1.77-.32,3.41-1.3,4.87-.14.21-.28.59-.41.58-.26-.02-.59-.19-.73-.41-.21-.31-.36-.72-.39-1.09-.1-1.21,0-2.45-.21-3.63-.4-2.14-.97-4.24-1.47-6.36-.17-.73-.7-3.18-.84-3.4-.17-.25-.59-.47-.87-.44-.24.03-.54.41-.62.69-.12.44-.13.93-.07,1.38.27,1.9.68,3.78.88,5.68.21,1.94.25,3.9.32,5.85,0,.28-.27.56-.41.84-.25-.16-.57-.26-.72-.48-1.02-1.48-1.37-3.14-1.36-4.9,0-1.95.1-3.9-.02-5.84-.02-.24-.53-1.11-1.02-1.12-.49,0-.96.85-.98,1.09-.11,1.35,0,2.71-.04,4.07-.02.78-.13,1.56-.21,2.34-.1,0-.21,0-.31,0-.18-.58-.4-1.14-.51-1.73-.25-1.32-.37-2.66-.68-3.96-.06-.26-.6-1.19-1.08-1.18-.43,0-.81.93-.86,1.16-.12.5.26,1.11.23,1.66-.12,2.24.76,4.24,1.75,6.09.73,1.37,2.02,2.46,3.12,3.62,1.94,2.04,3.35,4.22,2.29,7.18-.23.65-.4,1.33-.52,2.02-.34,1.87-.93,3.67-2.22,5-1.16,1.19-1.47,1.5-2.78-.08-1.09-1.31-2.02-2.75-2.95-4.18-.56-.87-1.1-1.78-1.45-2.74-.71-1.95-1.27-3.96-1.93-5.92-.99-2.91-1.07-5.69,1.05-8.11,1.24-1.43,1.72-3.05,1.35-4.91-.22-1.14-.48-2.29-.87-3.39-.16-.46-.7-1.07-1.07-1.08-.43,0-1.11.49-1.24.91-.18.57,0,1.28.13,1.92.21.99.55,1.94.74,2.93.17.87-.32,1.25-1.13.91-.4-.17-.8-.48-1.08-.81-.86-1.02-1.26-2.12-.9-3.54.14-.57-.21-1.44-.62-1.93-.24-.29-1.21-.33-1.56-.07-.64.47-.97,1.26-.74,2.17.25.97.36,1.99.71,2.93.37,1,.81,2.05,1.48,2.86.7.83.69,1.58.35,2.43-.13.32-.45.56-.68.84-.24-.23-.53-.44-.71-.71-1.07-1.64-2.09-3.3-3.18-4.92-.73-1.08-1.72-1.69-3.07-1.28-.38.11-.81,1.19-.53,1.48,1.19,1.25,2.57,2.36,3.6,3.74.78,1.05,1.15,2.41,1.65,3.65.05.11-.34.56-.42.53-1.05-.37-2.15-.68-2.77-1.77-.78-1.38-1.51-2.79-2.44-4.05-.3-.41-1.24-.62-1.8-.51-.8.16-.49.83-.35,1.49.37,1.76,1.43,3.07,2.58,4.31.77.83,1.69,1.56,2.65,2.16.84.53,1.86.75,2.75,1.21,2.69,1.4,3.3,4.14,4,6.69.45,1.65-.44,2.3-2.11,1.87-.86-.22-1.76-.39-2.56-.75-.51-.23-.99-.7-1.3-1.18-.42-.63-1.99-4.25-2.42-5.38-.37-.99-1.48-1.76-2.31-1.51-.91.27-1.15,1.16-.69,2.42.58,1.6,1.11,3.23,1.74,4.82.25.63.63,1.24,1.08,1.75.82.93.78,1.29-.32,1.92-.8.46-1.58.95-2.32,1.49-.72.52-.94,2.01-.37,2.42.57.41,1.39.31,2.13-.14.17-.1.37-.26.53-.42,2-1.99,4.4-2.59,7.2-1.94,1.07.25,1.87,1.2,1.49,2.18-.41,1.06-.94,2.11-1.64,2.99-1.53,1.89-3.84,1.99-6.07,2.25-.44.05-1.05.24-1.21.56-.16.32,0,1.07.28,1.29.54.42,2.78.75,3.2.75,2.53,0,4.53-1,5.97-3.03.82-1.15,1.57-2.35,2.42-3.48.72-.95,1.74-.96,2.32-.06,1.28,1.96,2.51,3.87,3.11,6.24,3.16,12.49-4.58,16.75-8.99,14.55-5.4-2.7-21.7-21.93-30.23-30.26-6.44-6.29-10.89-12.94-13.01-18.05-5.36-12.95-2.92-46.07-.99-64.66.04-.38-.12-.65-.26-.81-.14-.16-.39-.34-.77-.34h-9.05c-.38,0-.63.19-.77.34-.14.16-.3.42-.26.81,1.93,18.59,4.37,51.71-.99,64.66-2.14,5.18-9.64,13.93-13.23,18.29-6.74,8.2-22.35,28-30.02,30.03-4.77,1.26-12.15-2.06-8.99-14.55.6-2.37,1.83-4.29,3.11-6.24.59-.9,1.61-.88,2.32.06.85,1.12,1.61,2.32,2.42,3.48,1.44,2.03,3.44,3.03,5.97,3.03.43,0,2.66-.32,3.2-.75.28-.22.44-.97.28-1.29-.16-.32-.77-.51-1.21-.56-2.23-.26-4.55-.36-6.07-2.25-.7-.87-1.23-1.93-1.64-2.99-.38-.98.42-1.93,1.49-2.18,2.79-.65,5.19-.05,7.2,1.94.16.16.36.32.53.42.74.44,1.56.55,2.13.14.57-.41.35-1.9-.37-2.42-.74-.54-1.52-1.03-2.32-1.49-1.1-.63-1.14-.99-.32-1.92.45-.51.83-1.12,1.08-1.75.63-1.59,1.15-3.21,1.74-4.82.46-1.26.22-2.15-.69-2.42-.83-.25-1.94.52-2.31,1.51-.42,1.13-2,4.76-2.42,5.38-.32.48-.79.95-1.3,1.18-.81.36-1.7.53-2.56.75-1.67.43-2.57-.22-2.11-1.87.7-2.55,1.3-5.29,4-6.69.89-.46,1.91-.69,2.75-1.21.96-.6,1.88-1.33,2.65-2.16,1.15-1.24,2.21-2.56,2.58-4.31.14-.66.45-1.33-.35-1.49-.56-.11-1.49.1-1.8.51-.94,1.26-1.67,2.68-2.44,4.05-.62,1.09-1.72,1.4-2.77,1.77-.08.03-.47-.42-.42-.53.5-1.24.87-2.6,1.65-3.65,1.03-1.38,2.41-2.48,3.6-3.74.27-.29-.15-1.37-.53-1.48-1.36-.4-2.34.2-3.07,1.28-1.09,1.62-2.11,3.29-3.18,4.92-.18.27-.47.47-.71.71-.23-.28-.55-.52-.68-.84-.35-.85-.35-1.59.35-2.43.67-.8,1.11-1.85,1.48-2.86.35-.93.46-1.96.71-2.93.24-.91-.1-1.69-.74-2.17-.35-.26-1.31-.22-1.56.07-.41.49-.76,1.36-.62,1.93.36,1.41-.04,2.52-.9,3.54-.29.34-.68.64-1.08.81-.81.35-1.29-.03-1.13-.91.19-.99.54-1.95.74-2.93.13-.63.31-1.35.13-1.92-.13-.42-.81-.92-1.24-.91-.37,0-.91.62-1.07,1.08-.39,1.09-.65,2.24-.87,3.39-.36,1.86.11,3.48,1.35,4.91,2.11,2.42,2.03,5.2,1.05,8.11-.67,1.97-1.22,3.97-1.93,5.92-.35.96-.89,1.87-1.45,2.74-.93,1.43-1.87,2.87-2.95,4.18-1.3,1.58-1.61,1.26-2.78.08-1.3-1.33-1.89-3.13-2.22-5-.12-.68-.29-1.37-.52-2.02-1.06-2.97.35-5.14,2.29-7.18,1.1-1.16,2.38-2.25,3.12-3.62,1-1.86,1.87-3.86,1.75-6.09-.03-.55.35-1.16.23-1.66-.05-.23-.43-1.15-.86-1.16-.48-.01-1.02.92-1.08,1.18-.32,1.3-.43,2.64-.68,3.96-.11.59-.34,1.15-.51,1.73-.1,0-.21,0-.31,0-.07-.78-.19-1.56-.21-2.34-.03-1.36.07-2.72-.04-4.07-.02-.23-.49-1.09-.98-1.09-.49,0-1.01.88-1.02,1.12-.13,1.94-.03,3.89-.02,5.84,0,1.76-.34,3.42-1.36,4.9-.15.22-.48.32-.72.48-.14-.28-.42-.56-.41-.84.07-1.95.11-3.91.32-5.85.2-1.9.6-3.79.88-5.68.07-.45.05-.95-.07-1.38-.08-.28-.38-.66-.62-.69-.28-.04-.7.19-.87.44-.14.21-.67,2.67-.84,3.4-.5,2.12-1.07,4.22-1.47,6.36-.22,1.18-.12,2.42-.21,3.63-.03.37-.18.78-.39,1.09-.14.22-.48.39-.73.41-.13,0-.28-.37-.41-.58-.97-1.46-1.4-3.1-1.29-4.87.11-1.89.3-3.78.47-5.66.07-.75.25-1.79-.57-1.89-.57-.07-1.47.64-1.85,1.24-.44.69-.55,1.64-.66,2.49-.62,4.62-.01,8.92,2.79,12.7.74,1,1.19,2.26,1.6,3.47.65,1.91,1.09,3.89,1.72,5.8.52,1.58.91,3.31,1.84,4.61,1.74,2.41,1.28,5.23,1.66,7.89.05.34-.29.76-.45,1.14-.36-.22-.85-.36-1.07-.69-1.84-2.69-3.78-5.33-5.38-8.18-1.38-2.47-1.61-5.35-1.8-8.23-.11-1.61-.61-3.22-1.14-4.75-.53-1.53-1.5-2.9-1.96-4.46-.37-1.28-.32-2.71-.36-4.07-.03-.94.23-1.91.12-2.82-.06-.52-.53-1.24-.98-1.4-.67-.23-.96.47-1.05,1.11-.16,1.08-.35,2.16-.44,3.25-.08,1.02-.33,1.23-1.27.86-.53-.21-1.06-.42-1.59-.64-.68-.29-1.24.06-1.4.66-.1.37.23.98.54,1.29.37.36.95.49,1.42.74,1.92,1.02,2.99,2.74,3.76,4.74.22.57.63,1.05.9,1.6.12.25.09.57.13.86-.25-.1-.53-.16-.76-.3-1.66-.93-3.31-1.89-4.97-2.82-.97-.55-1.91-.54-2.25.07-.45.83.96,1.66,1.37,1.81,2.35.84,4.45,2.13,5.93,4.17,1.28,1.77,2.24,3.76,1.26,6.15-.32.79-.88.98-1.6.58-1.49-.82-2.19-2.3-3.03-3.69-1.24-2.05-2.42-4.18-3.92-6.02-1.11-1.36-2.78-2.17-4.57-2.46-.26-.04-.71.25-.85.51-.26.48.02.69.52.91,2.44,1.07,4.53,2.52,5.27,5.4.3,1.18.75,2.31,1.22,3.43.29.69-.01.79-.54.75-2.45-.15-4.34-1.04-5.5-3.48-.6-1.26-2-2.04-2.93-3.15-.32-.39-1.27-.72-1.58-.32-.35.4-.09,1.02.63,1.81.56.61,1.27,1.11,1.85,1.71.2.21.49.69.31.94-.31.24-.66.08-.9-.05-.73-.41-1.4-.93-2.13-1.36-.25-.15-1.09-.62-1.3-.41-.3.38.1,1.08.37,1.25.94.56,1.48,1.76,2.43,2.23,2.35,1.16,8.71,3.25,9.43,3.21.79-.04,1.48.26,1.31.87-.16.35-1.04.55-1.46.46-2.43-.55-4.83-1.2-7.23-1.86-1.59-.43-3.14-.99-4.74-1.36-1.28-.3-2.27-.42-2.7.44-.33.66.35,1.62,2.31,1.81,2.68.26,3.64.53,5.99,1.45,1.46.57,2.88,1.28,4.39,1.68,1.05.28,2.22.24,3.34.16,1.19-.08,2.37-.39,3.56-.56,1.66-.23,3.15.12,4.26,1.43,2.05,2.42,3.98,4.92,5.2,7.91.37.9-.25,2.16-1.23,2.34-1.42.26-2.84.05-3.76-1.03-1.89-2.21-4.41-3.51-6.71-5.15-2.34-1.68-5.15-1.88-7.74-2.8-1.87-.67-3.74-1.37-5.52-2.23-.98-.47-1.78-1.31-2.66-1.99-.18-.14-.38-.29-.53-.43-.58-.55-1.14-.75-1.55-.3-.3.54.02.99.5,1.34.67.5.95,1.41,1.45,2.09.43.58.14.78-.42.83-.31.03-3.12,0-4.27.26-.71.16-.86,1.61-.22,1.72,1.75.29,3.57.73,5.27.74,3.99,0,7.82.56,11.38,2.34,2.04,1.01,4.16,1.89,5.75,3.59.4.43.67,1.24.75,1.64.19.95-.79,1.65-1.69,1.86-2.18.5-4.29.79-6.35.24-2.66-.7-5.32-1.52-7.81-2.66-1.52-.7-2.75-2.04-4.03-3.18-.97-.87-1.81-1.9-2.75-2.8-.29-.27-.74-.42-1.14-.5-.57-.12-.86.11-.79.82.18,1.79,1.35,2.86,2.45,4,.22.23.37.53.55.8-.36.11-.71.28-1.07.31-1.12.1-2.24.27-3.36.27-.59,0-1.21.49-.94.96.14.34.49.58.78.64,1.67.32,3.36.56,5.03.85.32.06.61.24.92.37-.22.2-.45.4-.66.62-1.45,1.54-3.19,2.29-5.2,2.4-.23.01-.65.13-.88.3-.36.29-.33,1.55.63,1.63.76.06,1.59.08,2.31-.16,1.65-.56,3.26-1.29,4.88-1.95.15-.06.3-.15.45-.17.6-.07,1.2-.12,1.8-.17-.38.44-.75.88-1.13,1.32-.96,1.11-2.05,2.14-2.83,3.37-1.02,1.6-2.55,1.87-4.05,2.3-.76.22-1.62.13-2.29.49-.54.29-1.26.99-1.29,1.61.03.74.7,1.01,1.3.78,1.99-.74,4.3.21,6.08-1.4,1.24-1.13,2.29-2.49,3.38-3.79,1.27-1.52,2.27-3.32,4.15-4.16,2.06-.91,4.04-.92,5.9.29.6.39.45.84.08,1.29-1.16,1.41-2.43,2.75-3.48,4.24-1.05,1.51-1.8,3.23-2.82,4.78-1.97,2.99-5.79,4.62-8.27,4.71-.98.04-1.95.12-2.93.14-.78.02-1.23.47-1.12,1.18.06.4.53.94.91,1,2.54.43,9.3-.38,11.44-2.33,1.47-1.34,3.12-3.39,4.2-5.06,1.73-2.66,5.29-6.07,7.03-7.19,2.04-1.31,4.18-2.6,6.43-3.35,2.51-.83,5.12-.61,7.73-.11,2.27.43,4.29,1.23,6.13,2.45,3,2,4.73,4.96,4.2,8.63-.48,3.29-1.75,6.46-4.67,8.82-1.47,1.2-3.24,2.28-4.96,3.11-3.61,1.74-6.99,3.04-10.91,3.15-4.56.12-8.28-1.66-12.33-3.25-1.08-.43-1.72-.61-2.29-.71-2.48-.41-4.99-.69-7.54.07-.73.22-1.47.44-2.15.79-.76.39-1.37.33-1.97-.13-1.3-1-2.61-1.99-3.93-2.96-.16-.12-.6-.08-.67-.05-.54.3-.43.91-.29,1.13.58.9,1.25,1.75,1.98,2.51.92.95,1.34,1.27.11,2.08-.7.46-1.11.52-2.23.56-.34.01-2,.37-1.47.78,1.55,1.25,3.27,1.36,5.09.85,2.68-.75,5.1.3,5.99,2.79.15.42.03,1.19-.27,1.55-.84,1.01-1.74,2.08-2.81,2.79-2.69,1.8-4.83,4.11-6.63,6.81-.66,1-1.34,1.99-2,2.99-.23.35-.51.71-.64,1.06-.21.58-.54,1.26.06,1.65.33.3,1.04-.07,1.41-.65.96-1.52,2.18-2.86,3.28-4.27.62-.79,1.41-1.44,1.96-2.27.28-.42.73-.66,1.03-.52.3.16.09.69,0,1.01-.2.74-.48,1.47-.72,2.21-.45,1.37-1.16,2.73-1.28,4.1-.18,1.95-1.34,2.73-2.85,3.34-2.02.81-2.87,2.47-3.12,4.66-.05.41-.18.81-.19,1.21,0,.26.09.62.27.71.16.08.65-.06.72-.22.46-.95.77-1.9,1.6-2.75.24-.25.75-.79,1.22-1.01.73-.35,1.58-.44,2.28-.85.53-.3,1.1-.85,1.33-1.4,1.04-2.42,2-4.87,2.92-7.32.71-1.88,1.21-3.83,2-5.67,1.84-4.33,5.98-4.3,8.18-2.29,1.14,1.04,1.25,2.26.42,3.74-1.45,2.61-3.07,5.16-4.29,7.86-1.36,3.02-2.45,6.15-3.46,9.29-.61,1.9-.76,3.91-1.29,5.85-.4,1.48-1.24,2.63-2.95,3.04-1.38.33-2.63.66-4.15,1.03-1.15.28-2.62,1.75-2.88,2.95-.76,3.47-1.18,5.9-.85,7.2.03.12.19.39.33.4.19,0,.47-.12.6-.27.24-.29.48-.62.59-.97.52-1.66,1-3.33,1.47-5,.29-1.04.65-1.75,1.97-1.75,1.16,0,2.38-.4,3.56-.72.83-.23,1.1.16.96.81-.48,2.24-.98,4.49-1.62,6.71-.12.4-.93.79-1.47.97-1.08.37-2.21.57-3.31.87-1.1.3-2.46,1.8-2.52,2.9-.02.44.54.46.73.38.6-.27,1.12-.82,1.73-1,.61-.17,1.57-.35,1.91-.02.28.43-.02,1.26-.26,1.81-.69,1.56-1.54,3.07-2.25,4.62-.19.42-.43,1.1-.44,1.59,0,.46-.2,1.53.24,1.66.7.2,1.64-.81,2.08-1.58.81-1.41,1.55-2.86,2.29-4.31.47-.92.89-1.87,1.37-2.79.07-.13.55-.78.67.2.33,2.8,1.42,2.71.6,8.47-.22,1.51.03,3.07.52,4.39.42,1.12,1.34,2.13,2.35,2.84,3,2.1,3.52.08,2.15-1.76-.62-.84-1.47-1.49-2.12-2.3-.39-.49-.79-1.11-.85-1.74-.33-3.18,1.16-4.47,1.38-9.5.03-.66.05-1.33.03-1.99-.07-2.1-.18-4.19-.22-6.29,0-.36.29-2.18.87-1.33.16.88.94,4.55,1.05,5.52.53,4.71,1.54,9.56-.05,14.29-.21.62-.02,1.25.43,1.31.38.05,1.03-.62,1.14-1.01.39-1.3.77-2.64.85-3.94.17-2.67.1-5.32.22-7.98.14-3.11-.17-6.11-.94-9.01-.25-.97-.91-1.81-1.04-2.79-.3-2.19-.52-4.41-.5-6.65,0-.81.73-1.72,1.23-2.53.41-.66.94-.73,1.24,0,.68,1.67,1.46,3.31,1.92,5.06.35,1.35.27,2.86.39,4.3.02.27.04.55.07.82.05.48.2.81.48.79.16-.02.39-.42.56-.86.84-2.15,1.09-4.24.82-6.29-.24-1.84-1.06-3.53-1.55-5.32-.44-1.62-1.44-3-1.34-4.87.09-1.82.24-3.55,1.22-5.24,1.46-2.52,2.84-5.08,4.19-7.64,1.27-2.42,3.04-4.34,5.27-5.86,1.41-.96,2.73-2.03,4.46-2.41,1.9-.42,3.76-.43,5.45.21,1.41.53,1.86,2.06,2.07,3.49.25,1.64-.25,3.25-.44,4.99-.12,1.05-.15,2.04-.33,3.05-.34,1.93-.76,3.86-1.17,5.79-.1.47-.28.91-.43,1.38-.6,1.92-1.45,3.39-2.57,4.91-1.71,2.33-3.95,4.08-6.13,5.96-1.32,1.14-2.5,2.59-3.37,4.09-.46.79-1.35,2.16-1.39,3.18-.03.75.92.5,1.13.19.92-1.37,2.73-2.99,3.64-4.36.16-.23.39-.43.61-.61,2.4-1.99,4.81-3.97,7.21-5.96.66-.54.97-.42,1.12.33.21,1.06-.51,1.8-1.2,2.41-2.64,2.33-5.35,4.58-8.04,6.88-1.11.95-2.23,1.88-3.29,2.88-.32.3-.65.8-.65,1.18.02,2.72-2.38,3.55-4.06,4.82-1.05.79-1.66,1.63-1.89,2.79-.25,1.21-.43,2.42-.6,3.63-.12.81-.19,1.63-.24,2.45,0,.14-.05.71.27.74.37.03.5-.47.53-.59.1-.43.19-.89.31-1.38.37-1.53,1-3.3,1.98-4.76,1.37-2.04,3.39-2.12,5.02-3.74.37-.37.64-1.05.64-1.55-.02-2.03,1.68-2.68,2.94-3.7,1.31-1.05,2.61-2.1,3.93-3.12.85-.66,1.66-1.4,2.59-1.88.73-.37.92.37.72.86-.46,1.15-.85,2.47-1.68,3.32-1.6,1.63-3.5,2.96-5.25,4.44-.98.83-1.93,1.72-2.89,2.59-1.31,1.19-2.7,2.32-3.91,3.61-.52.56-.8,1.43-.99,2.18-.45,1.74-.75,3.49-1.17,5.23-.38,1.56-.86,3.19-2.49,4.15-.54.32-.98.79-1.39,1.34-.31.38,0,.7.44.42,1.19-.66,2.41-1.27,3.56-1.99,1.75-1.09,1.73-2.94,2.22-4.54.49-1.59.82-3.22,1.27-4.82.35-1.22,2-2.36,3.37-2.33-.47.81-.88,1.62-1.39,2.37-1.18,1.76-2.14,6.56-2.2,7.03-.09.77-.37,2.45.23,2.53.33.05.73-.36.84-.63.45-1.11.92-2.24,1.15-3.38.49-2.42,1.65-4.5,3.25-6.45.97-1.17,2.62-4.54,2.77-4.94.3-.79,1.38-1.06,1.18-.07-.58,2.81-1.01,4.12-.47,6.78.24,1.19.94,2.99,1.46,4.06.33.67,1.1,1.98,1.63,1.71.27-.14.36-.48.43-.99.26-1.8-.47-3.32-.88-4.89-.83-3.14-.54-6.21.81-9.37,1.15-2.69,2.43-5.36,3.26-8.11.74-2.46.98-5.03,1.37-7.55.22-1.4.26-2.81.44-4.21.04-.31.33-.62.5-.93.18.25.46.47.53.76.47,1.85,1.43,2.53,1.65,4.43.3,2.6-.21,6.39-1.07,9.06-.76,2.36,1.95,2.06,2.27-1.53.21-2.37,2.07-6.02,1.88-8.37-.32-4.05-2.84-6.65-3.52-10.62-.41-2.42-.72-4.91-.65-7.39.07-2.62,1.35-5.01,3.12-7.05,1.26-1.44,2.66-1.26,3.7.25,1.79,2.58,3.33,5.25,4.27,8.31.98,3.17,1.53,6.36,1.08,9.78-.21,1.59-.23,3.18-.36,4.77-.21,2.43-1.51,4.53-2.79,6.6-1.33,2.15-2.94,4.16-4.28,6.32-2.06,3.32-4.26,6.61-5.24,10.4-.5,1.92-1.02,3.85-1.51,5.77-.81,3.17.21,3.12.91,1.55.44-1.09.9-2.17,1.32-3.27.36-.94.66-1.9,1.02-2.84.26-.67.58-1.32.88-1.97.24-.5.55-1.14,1.09-1.05.52.16.47.69.37,1.22-.37,2.08-.58,4.07-1.37,6.07-.58,1.47-.18,1.92.2,2.15.77.48,1.13-.52,1.39-1,1.69-3.14,2.74-6.33,1.97-9.72-.4-1.77.33-3.49,1.26-5.1.39-.68,1.18-.65,1.5.01,1.09,2.31,1.77,4.79,1.77,7.42,0,1.21-.54,2.47-.84,3.71-.04.15-.61,1.8-.1,2.01.35.1.98-.58,1.29-.99,1.97-2.59,2.16-5.35,1.6-8.18-.3-1.48-.53-2.99-.84-4.47-.13-.63-.34-1.26-.6-1.84-.52-1.19-.43-2.32.37-3.51,2.61-3.87,3.75-8.06,3.93-12.47.04-.91.34-1.84.58-2.75.06-.21.38-.5.59-.52.17-.02.47.27.51.48.16.93.27,1.87.35,2.81.06.76.06,1.53.05,2.3-.03,4.54-.85,9.06-1.61,13.59-.14.81-.44,1.61-.59,2.42-.53,2.76.5,5.03,1.84,7.17.11.17.66.46,1.04.15.68-.57.99-1.39.51-2.05-1.48-2-1.08-4.34-.71-6.66.29-1.86.69-3.71,1.09-5.55.24-1.11.65-2.2.88-3.3.17-.84.2-1.69.25-2.54.1-1.68.15-3.36.25-5.04.01-.17.23-.35.36-.53.12.17.33.33.35.52.18,1.59.36,3.18.48,4.77.11,1.6.28,3.2.18,4.81-.12,2.05-.52,4.11-.69,6.17-.15,1.73-.47,3.5.2,5.13.1.24.38.54.61.55.23,0,.54.13.74-.5.22-.68.52-2.69.58-2.99.42-2.3.87-4.59,1.27-6.89.59-3.34.32-6.62-.1-9.86-.38-2.92-1.09-5.78-2.64-8.26-2.24-3.6-4.8-7-6.95-10.67-.94-1.61-1.33-3.61-1.74-5.49-.38-1.73-.75-4.96.08-6.84.14-.32.98-.51,1.27-.12,3.43,4.52,2.74,10.59,4.43,11.84,5.94,4.38,7.12,7.09,7.2,9.52.01.41.45,1.05.95.95.41-.07.84-.51,1.01-1.11.12-.41.13-.92.06-1.35-.41-2.48-1.2-4.57-2.76-6.39-.81-.94-1.69-1.83-2.51-2.76-.21-.24-.33-.57-.5-.86.32-.09.63-.2.95-.28,1.08-.26,2.2-.43,3.25-.8.53-.19,1.88-1.27,1.66-2.12-.19-.75-1.36-.53-2.08-.37-.73.16-1.42.76-2.16.85-1.11.15-1.82.24-2.62-.4-.66-.53-.67-.72.16-1.18,1.69-.95,3.1-2.46,4.91-3.1.56-.2,1.3-1.05,1.15-1.67-.29-.73-1.44-.61-2.3-.33-1.14.38-2.25,1.06-3.16,1.86-.7.62-1.23.59-1.75.18-.95-.74-1.86-1.56-2.69-2.43-1.82-1.91-2.29-4.41-1.86-6.92.26-1.55,1.33-3.08,2.25-4.48,1.65-2.52,4.15-4.74,6.61-7.07,1.66-1.58,14.24-15.8,23.87-24.61,5.81-5.32,11.97-8.18,17.13-8.18s11.61,3.04,17.61,8.57c9.59,8.85,21.71,22.61,23.39,24.22,2.45,2.33,4.96,4.56,6.61,7.07.92,1.41,1.98,2.93,2.25,4.48.43,2.51-.04,5.01-1.86,6.92-.83.87-1.74,1.68-2.69,2.43-.52.4-1.05.44-1.75-.18-.9-.8-2.02-1.48-3.16-1.86-.86-.28-2.02-.4-2.3.33-.15.63.59,1.48,1.15,1.67,1.81.64,3.23,2.15,4.91,3.1.83.47.82.65.16,1.18-.8.64-1.51.55-2.62.4-.74-.1-1.43-.69-2.16-.85-.72-.16-1.9-.38-2.08.37-.21.85,1.13,1.93,1.66,2.12,1.05.37,2.16.54,3.25.8.32.08.64.19.95.28-.16.29-.28.61-.5.86-.82.93-1.7,1.82-2.51,2.76-1.56,1.83-2.35,3.92-2.76,6.39-.07.43-.06.93.06,1.35.17.6.59,1.04,1.01,1.11.49.1.93-.55.95-.95.08-2.44,1.26-5.14,7.2-9.52,1.69-1.25.99-7.32,4.43-11.84.29-.39,1.13-.2,1.27.12.83,1.87.46,5.1.08,6.84-.41,1.89-.8,3.88-1.74,5.49-2.14,3.67-4.71,7.07-6.95,10.67-1.54,2.47-2.26,5.33-2.64,8.26-.42,3.24-.68,6.52-.1,9.86.4,2.3.85,4.59,1.27,6.89.05.3.36,2.31.58,2.99.2.63.51.51.74.5.23,0,.51-.3.61-.55.66-1.62.34-3.4.2-5.13-.17-2.06-.58-4.12-.69-6.17-.09-1.61.07-3.21.18-4.81.11-1.6.3-3.19.48-4.77.02-.19.23-.35.35-.52.12.18.35.36.36.53.1,1.68.16,3.36.25,5.04.05.85.08,1.7.25,2.54.23,1.11.63,2.2.88,3.3.4,1.84.79,3.7,1.09,5.55.37,2.32.77,4.66-.71,6.66-.48.66-.17,1.48.51,2.05.38.32.94.02,1.04-.15,1.34-2.14,2.37-4.41,1.84-7.17-.15-.81-.45-1.61-.59-2.42-.76-4.53-1.58-9.05-1.61-13.59,0-.77,0-1.54.05-2.3.07-.94.19-1.89.35-2.81.03-.2.34-.49.51-.48.21.02.53.31.59.52.24.91.54,1.84.58,2.75.18,4.41,1.32,8.6,3.93,12.47.8,1.19.89,2.32.37,3.51-.26.59-.47,1.21-.6,1.84-.31,1.48-.54,2.98-.84,4.47-.57,2.82-.37,5.59,1.6,8.18.31.41.94,1.09,1.29.99.51-.21-.06-1.86-.1-2.01-.3-1.24-.84-2.5-.84-3.71,0-2.63.68-5.11,1.77-7.42.31-.66,1.1-.7,1.5-.01.92,1.62,1.66,3.34,1.26,5.1-.77,3.39.27,6.58,1.97,9.72.26.48.62,1.47,1.39,1,.38-.23.78-.68.2-2.15-.79-2-1-3.99-1.37-6.07-.1-.53-.14-1.06.37-1.22.55-.09.86.55,1.09,1.05.31.65.63,1.3.88,1.97.36.94.66,1.9,1.02,2.84.42,1.09.88,2.18,1.32,3.27.7,1.57,1.71,1.62.91-1.55-.49-1.92-1.01-3.85-1.51-5.77-.98-3.79-3.18-7.08-5.24-10.4-1.34-2.16-2.95-4.17-4.28-6.32-1.28-2.07-2.58-4.17-2.79-6.6-.14-1.59-.15-3.18-.36-4.77-.45-3.42.1-6.6,1.08-9.78.94-3.06,2.48-5.74,4.27-8.31,1.05-1.51,2.45-1.7,3.7-.25,1.77,2.04,3.06,4.43,3.12,7.05.06,2.48-.24,4.97-.66,7.39-.68,3.97-3.19,6.57-3.52,10.62-.19,2.35,1.67,6,1.88,8.37.32,3.59,3.03,3.89,2.27,1.53-.86-2.67-1.37-6.45-1.07-9.06.22-1.9,1.18-2.58,1.65-4.43.07-.29.35-.51.53-.76.17.31.46.61.5.93.18,1.4.23,2.81.44,4.21.39,2.52.63,5.09,1.37,7.55.83,2.75,2.11,5.42,3.26,8.11,1.35,3.16,1.64,6.23.81,9.37-.41,1.57-1.14,3.09-.88,4.89.07.51.16.85.43.99.52.27,1.3-1.03,1.63-1.71.52-1.08,1.22-2.88,1.46-4.06.54-2.66.11-3.97-.47-6.78-.21-.99.88-.72,1.18.07.15.4,1.81,3.77,2.77,4.94,1.6,1.95,2.76,4.04,3.25,6.45.23,1.14.7,2.27,1.15,3.38.11.27.52.68.84.63.59-.08.32-1.76.23-2.53-.06-.47-1.01-5.27-2.2-7.03-.5-.75-.91-1.55-1.39-2.37,1.37-.04,3.03,1.11,3.37,2.33.45,1.6.78,3.23,1.27,4.82.49,1.6.47,3.45,2.22,4.54,1.16.72,2.37,1.33,3.56,1.99.44.29.75-.04.44-.42-.42-.55-.86-1.02-1.39-1.34-1.63-.96-2.11-2.6-2.49-4.15-.42-1.74-.72-3.5-1.17-5.23-.2-.76-.47-1.63-.99-2.18-1.21-1.29-2.59-2.42-3.91-3.61-.96-.87-1.9-1.76-2.89-2.59-1.76-1.49-3.66-2.82-5.25-4.44-.84-.85-1.22-2.17-1.68-3.32-.2-.49,0-1.23.72-.86.93.48,1.75,1.22,2.59,1.88,1.32,1.03,2.62,2.08,3.93,3.12,1.26,1.01,2.96,1.67,2.94,3.7,0,.5.26,1.18.64,1.55,1.63,1.62,3.65,1.7,5.02,3.74.98,1.46,1.61,3.23,1.98,4.76.12.49.21.94.31,1.38.03.11.16.62.53.59.31-.03.28-.6.27-.74-.05-.81-.13-1.63-.24-2.45-.17-1.21-.36-2.43-.6-3.63-.23-1.15-.84-1.99-1.89-2.79-1.68-1.27-4.08-2.1-4.06-4.82,0-.37-.33-.88-.65-1.18-1.06-1-2.18-1.93-3.29-2.88-2.69-2.3-5.4-4.55-8.04-6.88-.69-.6-1.41-1.34-1.2-2.41.15-.75.46-.88,1.12-.33,2.39,1.99,4.8,3.96,7.21,5.96.22.18.46.38.61.61.91,1.37,2.72,2.99,3.64,4.36.21.31,1.16.57,1.13-.19-.04-1.02-.94-2.39-1.39-3.18-.87-1.5-2.05-2.95-3.37-4.09-2.17-1.87-4.41-3.63-6.13-5.96-1.12-1.53-1.97-2.99-2.57-4.91-.14-.46-.33-.91-.43-1.38-.41-1.93-.83-3.86-1.17-5.79-.18-1.01-.21-2.01-.33-3.05-.19-1.74-.69-3.34-.44-4.99.21-1.43.66-2.95,2.07-3.49,1.69-.64,3.55-.64,5.45-.21,1.73.38,3.05,1.45,4.46,2.41,2.23,1.52,4,3.45,5.27,5.86,1.35,2.56,2.74,5.12,4.19,7.64.98,1.69,1.13,3.42,1.22,5.24.1,1.86-.9,3.25-1.34,4.87-.48,1.79-1.31,3.49-1.55,5.32-.27,2.05-.01,4.14.82,6.29.17.43.4.83.56.86.28.02.43-.32.48-.79.03-.26.05-.54.07-.82.11-1.44.03-2.95.39-4.3.46-1.75,1.24-3.39,1.92-5.06.3-.73.84-.67,1.24,0,.5.81,1.22,1.72,1.23,2.53.02,2.24-.2,4.46-.5,6.65-.14.98-.79,1.83-1.04,2.79-.77,2.9-1.08,5.91-.94,9.01.12,2.66.05,5.32.22,7.98.08,1.31.46,2.65.85,3.94.12.39.76,1.06,1.14,1.01.45-.07.64-.7.43-1.31-1.59-4.73-.58-9.59-.05-14.29.11-.97.89-4.64,1.05-5.52.58-.85.88.97.87,1.33-.04,2.1-.15,4.2-.22,6.29-.02.66,0,1.34.03,1.99.22,5.03,1.71,6.32,1.38,9.5-.07.63-.46,1.25-.85,1.74-.65.81-1.5,1.46-2.12,2.3-1.37,1.84-.85,3.86,2.15,1.76,1.01-.71,1.93-1.72,2.35-2.84.49-1.31.73-2.88.52-4.39-.82-5.76.27-5.67.6-8.47.12-.99.6-.34.67-.2.47.92.89,1.86,1.37,2.79.74,1.44,1.48,2.89,2.29,4.31.44.77,1.38,1.78,2.08,1.58.44-.12.24-1.2.24-1.66,0-.49-.24-1.17-.44-1.59-.71-1.56-1.56-3.06-2.25-4.62-.24-.55-.54-1.37-.26-1.81.34-.34,1.3-.16,1.91.02.6.17,1.13.73,1.73,1,.19.08.75.06.73-.38-.06-1.1-1.41-2.6-2.52-2.9-1.1-.3-2.22-.51-3.31-.87-.54-.18-1.35-.57-1.47-.97-.65-2.22-1.15-4.47-1.62-6.71-.14-.65.13-1.04.96-.81,1.18.33,2.4.72,3.56.72,1.32,0,1.68.71,1.97,1.75.47,1.67.95,3.34,1.47,5,.11.34.35.68.59.97.13.16.41.28.6.27.14,0,.3-.27.33-.4.32-1.3-.09-3.73-.85-7.2-.26-1.2-1.73-2.67-2.88-2.95-1.51-.36-2.77-.7-4.15-1.03-1.7-.41-2.55-1.56-2.95-3.04-.52-1.93-.67-3.94-1.29-5.85-1.01-3.14-2.1-6.28-3.46-9.29-1.22-2.71-2.84-5.26-4.29-7.86-.82-1.48-.72-2.71.42-3.74,2.2-2,6.34-2.04,8.18,2.29.78,1.85,1.29,3.79,2,5.67.92,2.45,1.88,4.9,2.92,7.32.24.55.8,1.1,1.33,1.4.7.4,1.54.5,2.28.85.47.22.98.76,1.22,1.01.83.85,1.14,1.8,1.6,2.75.08.16.56.31.72.22.18-.09.27-.45.27-.71Z" fill="#fff" filter="url(#e)" opacity=".76"/></g><path d="m1299.28,1042.27c0,16.28-12.78,29.05-29.4,29.05s-29.58-12.78-29.58-29.05,13.13-28.7,29.58-28.7,29.4,12.77,29.4,28.7Zm-51.63,0c0,12.78,9.45,22.93,22.4,22.93s21.88-10.15,21.88-22.75-9.28-23.1-22.05-23.1-22.23,10.33-22.23,22.93Zm17.67,15.05h-6.65v-28.7c2.62-.53,6.3-.88,11.02-.88,5.43,0,7.88.88,9.98,2.1,1.58,1.23,2.8,3.5,2.8,6.3,0,3.15-2.45,5.6-5.95,6.65v.35c2.8,1.05,4.38,3.15,5.25,7,.88,4.38,1.4,6.12,2.1,7.17h-7.17c-.88-1.05-1.4-3.67-2.28-7-.53-3.15-2.28-4.55-5.95-4.55h-3.15v11.55Zm.18-16.28h3.15c3.67,0,6.65-1.22,6.65-4.2,0-2.62-1.92-4.38-6.12-4.38-1.75,0-2.98.17-3.67.35v8.22Z" fill="#fff"/></g></svg>