<?xml version="1.0" encoding="UTF-8" standalone="no"?>
<!-- Created with Inkscape (http://www.inkscape.org/) -->

<svg
   width="32"
   height="32"
   viewBox="0 0 8.4666665 8.4666666"
   version="1.1"
   id="svg548"
   xml:space="preserve"
   inkscape:version="1.2.1 (9c6d41e, 2022-07-14)"
   sodipodi:docname="FaviconBB.svg"
   xmlns:inkscape="http://www.inkscape.org/namespaces/inkscape"
   xmlns:sodipodi="http://sodipodi.sourceforge.net/DTD/sodipodi-0.dtd"
   xmlns="http://www.w3.org/2000/svg"
   xmlns:svg="http://www.w3.org/2000/svg"><sodipodi:namedview
     id="namedview550"
     pagecolor="#ffffff"
     bordercolor="#000000"
     borderopacity="0.25"
     inkscape:showpageshadow="2"
     inkscape:pageopacity="0.0"
     inkscape:pagecheckerboard="0"
     inkscape:deskcolor="#d1d1d1"
     inkscape:document-units="mm"
     showgrid="false"
     inkscape:zoom="3.2857886"
     inkscape:cx="-37.586106"
     inkscape:cy="7.9128644"
     inkscape:window-width="1309"
     inkscape:window-height="456"
     inkscape:window-x="0"
     inkscape:window-y="25"
     inkscape:window-maximized="0"
     inkscape:current-layer="g664" /><defs
     id="defs545"><style
       id="style642">.cls-1 {
        fill: #6044fa;
      }

      .cls-2 {
        fill: #3d3d3d;
      }

      .cls-3 {
        fill: #3d31af;
      }</style></defs><g
     inkscape:label="Layer 1"
     inkscape:groupmode="layer"
     id="layer1"><g
       transform="matrix(0.26458333,0,0,0.26458333,-106.47146,-139.13962)"
       id="g664"><g
         id="g688"
         transform="matrix(0.144551,0,0,0.144551,407.35171,464.29962)"><g
           id="g683"><path
             class="cls-3"
             d="M 22.96,494.85 6.14,478.03 c -8.19,-8.19 -8.19,-21.46 0,-29.65 l 16.82,-16.82 c 1.2,-1.2 3.15,-1.2 4.35,0 l 29.48,29.48 c 1.2,1.2 1.2,3.15 0,4.35 l -29.48,29.48 c -1.2,1.2 -3.15,1.2 -4.35,0 z m 58.38,-9.27 -16.82,-16.82 c -1.2,-1.2 -3.15,-1.2 -4.35,0 l -29.48,29.48 c -1.2,1.2 -1.2,3.15 0,4.35 l 29.48,29.48 c 1.2,1.2 3.15,1.2 4.35,0 l 16.82,-16.82 c 8.19,-8.19 8.19,-21.46 0,-29.65 z M 56.79,535.44 27.31,505.96 c -1.2,-1.2 -3.15,-1.2 -4.35,0 L 6.14,522.78 c -8.19,8.19 -8.19,21.46 0,29.65 l 16.82,16.82 c 1.2,1.2 3.15,1.2 4.35,0 l 29.48,-29.48 c 1.2,-1.2 1.2,-3.15 0,-4.35 z m 24.55,24.55 -16.82,-16.82 c -1.2,-1.2 -3.15,-1.2 -4.35,0 l -29.48,29.48 c -1.2,1.2 -1.2,3.15 0,4.35 l 29.48,29.48 c 1.2,1.2 3.15,1.2 4.35,0 l 16.82,-16.82 c 8.19,-8.19 8.19,-21.46 0,-29.65 z M 56.79,609.85 27.31,580.37 c -1.2,-1.2 -3.15,-1.2 -4.35,0 L 6.14,597.19 c -8.19,8.19 -8.19,21.46 0,29.65 l 16.82,16.82 c 1.2,1.2 3.15,1.2 4.35,0 l 29.48,-29.48 c 1.2,-1.2 1.2,-3.15 0,-4.35 z"
             id="path660" /><path
             class="cls-1"
             d="M 97.37,494.85 80.55,478.03 c -8.19,-8.19 -8.19,-21.46 0,-29.65 l 16.82,-16.82 c 1.2,-1.2 3.15,-1.2 4.35,0 l 29.48,29.48 c 1.2,1.2 1.2,3.15 0,4.35 l -29.48,29.48 c -1.2,1.2 -3.15,1.2 -4.35,0 z m 58.38,-9.27 -16.82,-16.82 c -1.2,-1.2 -3.15,-1.2 -4.35,0 l -29.48,29.48 c -1.2,1.2 -1.2,3.15 0,4.35 l 29.48,29.48 c 1.2,1.2 3.15,1.2 4.35,0 l 16.82,-16.82 c 8.19,-8.19 8.19,-21.46 0,-29.65 z m -24.55,49.86 -29.48,-29.48 c -1.2,-1.2 -3.15,-1.2 -4.35,0 l -16.82,16.82 c -8.19,8.19 -8.19,21.46 0,29.65 l 16.82,16.82 c 1.2,1.2 3.15,1.2 4.35,0 l 29.48,-29.48 c 1.2,-1.2 1.2,-3.15 0,-4.35 z m 24.55,24.55 -16.82,-16.82 c -1.2,-1.2 -3.15,-1.2 -4.35,0 l -29.48,29.48 c -1.2,1.2 -1.2,3.15 0,4.35 l 29.48,29.48 c 1.2,1.2 3.15,1.2 4.35,0 l 16.82,-16.82 c 8.19,-8.19 8.19,-21.46 0,-29.65 z m -24.55,49.86 -29.48,-29.48 c -1.2,-1.2 -3.15,-1.2 -4.35,0 l -16.82,16.82 c -8.19,8.19 -8.19,21.46 0,29.65 l 16.82,16.82 c 1.2,1.2 3.15,1.2 4.35,0 l 29.48,-29.48 c 1.2,-1.2 1.2,-3.15 0,-4.35 z"
             id="path662" /></g></g></g></g></svg>
