<svg xmlns="http://www.w3.org/2000/svg" width="867.122" height="829.544" viewBox="0 0 867.122 829.544">
  <g id="Wave_Small" data-name="Wave Small" transform="translate(-43.705 -2453.429)">
    <g id="Group_132" data-name="Group 132" opacity="0.3">
      <path id="Path_622" data-name="Path 622" d="M100.566,2644.79c105.348-182.47,338.67-244.99,521.139-139.64l97.756,56.44c182.468,105.34,244.987,338.67,139.638,521.14l-5.133,8.89C748.618,3274.08,515.3,3336.6,332.828,3231.25l-97.756-56.44C52.6,3069.47-9.915,2836.14,95.433,2653.68Z" fill="none" stroke="#4ddffd" stroke-width="1"/>
      <path id="Path_623" data-name="Path 623" d="M191.713,2703.34c80.49-139.42,258.758-187.18,398.171-106.69l66.246,38.24c139.413,80.49,187.18,258.76,106.69,398.17s-258.758,187.19-398.172,106.69L298.4,3101.51C158.989,3021.02,111.222,2842.75,191.713,2703.34Z" fill="none" stroke="#4ddffd" stroke-width="1"/>
      <path id="Path_624" data-name="Path 624" d="M262.806,2744.38c60.4-104.61,194.164-140.45,298.776-80.06l50.088,28.92c104.612,60.4,140.455,194.17,80.057,298.78s-194.164,140.45-298.776,80.06l-50.089-28.92C238.25,2982.76,202.408,2848.99,262.806,2744.38Z" fill="none" stroke="#4ddffd" stroke-width="1"/>
      <path id="Path_625" data-name="Path 625" d="M327.435,2781.7a153.418,153.418,0,0,1,209.576-56.16l33.93,19.59a153.42,153.42,0,1,1-153.42,265.73l-33.931-19.59A153.412,153.412,0,0,1,327.435,2781.7Z" fill="none" stroke="#4ddffd" stroke-width="1"/>
      <path id="Path_626" data-name="Path 626" d="M372.675,2807.82a106.777,106.777,0,0,1,145.861-39.09l24.236,13.99a106.78,106.78,0,1,1-106.777,184.95l-24.237-13.99A106.777,106.777,0,0,1,372.675,2807.82Z" fill="none" stroke="#4ddffd" stroke-width="1"/>
      <path id="Path_627" data-name="Path 627" d="M416.3,2833a62,62,0,0,1,84.7-22.69l14.541,8.39a62,62,0,1,1-62,107.39l-14.541-8.39A62.005,62.005,0,0,1,416.3,2833Z" fill="none" stroke="#4ddffd" stroke-width="1"/>
    </g>
  </g>
</svg>
