<?xml version="1.0" encoding="UTF-8" standalone="no"?>
<!-- Created with Inkscape (http://www.inkscape.org/) -->

<svg
   width="256"
   height="256"
   viewBox="0 0 67.733331 67.733334"
   version="1.1"
   id="svg755"
   xml:space="preserve"
   inkscape:version="1.2.1 (9c6d41e, 2022-07-14)"
   sodipodi:docname="Icon256.svg"
   xmlns:inkscape="http://www.inkscape.org/namespaces/inkscape"
   xmlns:sodipodi="http://sodipodi.sourceforge.net/DTD/sodipodi-0.dtd"
   xmlns="http://www.w3.org/2000/svg"
   xmlns:svg="http://www.w3.org/2000/svg"><sodipodi:namedview
     id="namedview757"
     pagecolor="#ffffff"
     bordercolor="#000000"
     borderopacity="0.25"
     inkscape:showpageshadow="2"
     inkscape:pageopacity="0.0"
     inkscape:pagecheckerboard="0"
     inkscape:deskcolor="#d1d1d1"
     inkscape:document-units="mm"
     showgrid="false"
     inkscape:zoom="0.61505598"
     inkscape:cx="23.57509"
     inkscape:cy="173.9679"
     inkscape:window-width="1309"
     inkscape:window-height="456"
     inkscape:window-x="0"
     inkscape:window-y="25"
     inkscape:window-maximized="0"
     inkscape:current-layer="layer1" /><defs
     id="defs752"><style
       id="style877">.cls-1 {
        fill: #6044fa;
      }

      .cls-2 {
        fill: #3d3d3d;
      }

      .cls-3 {
        fill: #3d31af;
      }</style></defs><g
     inkscape:label="Layer 1"
     inkscape:groupmode="layer"
     id="layer1"><g
       transform="matrix(0.30409161,0,0,0.30409161,10.428119,-129.3991)"
       id="g899"><path
         class="cls-3"
         d="M 22.96,494.85 6.14,478.03 c -8.19,-8.19 -8.19,-21.46 0,-29.65 l 16.82,-16.82 c 1.2,-1.2 3.15,-1.2 4.35,0 l 29.48,29.48 c 1.2,1.2 1.2,3.15 0,4.35 l -29.48,29.48 c -1.2,1.2 -3.15,1.2 -4.35,0 z m 58.38,-9.27 -16.82,-16.82 c -1.2,-1.2 -3.15,-1.2 -4.35,0 l -29.48,29.48 c -1.2,1.2 -1.2,3.15 0,4.35 l 29.48,29.48 c 1.2,1.2 3.15,1.2 4.35,0 l 16.82,-16.82 c 8.19,-8.19 8.19,-21.46 0,-29.65 z M 56.79,535.44 27.31,505.96 c -1.2,-1.2 -3.15,-1.2 -4.35,0 L 6.14,522.78 c -8.19,8.19 -8.19,21.46 0,29.65 l 16.82,16.82 c 1.2,1.2 3.15,1.2 4.35,0 l 29.48,-29.48 c 1.2,-1.2 1.2,-3.15 0,-4.35 z m 24.55,24.55 -16.82,-16.82 c -1.2,-1.2 -3.15,-1.2 -4.35,0 l -29.48,29.48 c -1.2,1.2 -1.2,3.15 0,4.35 l 29.48,29.48 c 1.2,1.2 3.15,1.2 4.35,0 l 16.82,-16.82 c 8.19,-8.19 8.19,-21.46 0,-29.65 z M 56.79,609.85 27.31,580.37 c -1.2,-1.2 -3.15,-1.2 -4.35,0 L 6.14,597.19 c -8.19,8.19 -8.19,21.46 0,29.65 l 16.82,16.82 c 1.2,1.2 3.15,1.2 4.35,0 l 29.48,-29.48 c 1.2,-1.2 1.2,-3.15 0,-4.35 z"
         id="path895" /><path
         class="cls-1"
         d="M 97.37,494.85 80.55,478.03 c -8.19,-8.19 -8.19,-21.46 0,-29.65 l 16.82,-16.82 c 1.2,-1.2 3.15,-1.2 4.35,0 l 29.48,29.48 c 1.2,1.2 1.2,3.15 0,4.35 l -29.48,29.48 c -1.2,1.2 -3.15,1.2 -4.35,0 z m 58.38,-9.27 -16.82,-16.82 c -1.2,-1.2 -3.15,-1.2 -4.35,0 l -29.48,29.48 c -1.2,1.2 -1.2,3.15 0,4.35 l 29.48,29.48 c 1.2,1.2 3.15,1.2 4.35,0 l 16.82,-16.82 c 8.19,-8.19 8.19,-21.46 0,-29.65 z m -24.55,49.86 -29.48,-29.48 c -1.2,-1.2 -3.15,-1.2 -4.35,0 l -16.82,16.82 c -8.19,8.19 -8.19,21.46 0,29.65 l 16.82,16.82 c 1.2,1.2 3.15,1.2 4.35,0 l 29.48,-29.48 c 1.2,-1.2 1.2,-3.15 0,-4.35 z m 24.55,24.55 -16.82,-16.82 c -1.2,-1.2 -3.15,-1.2 -4.35,0 l -29.48,29.48 c -1.2,1.2 -1.2,3.15 0,4.35 l 29.48,29.48 c 1.2,1.2 3.15,1.2 4.35,0 l 16.82,-16.82 c 8.19,-8.19 8.19,-21.46 0,-29.65 z m -24.55,49.86 -29.48,-29.48 c -1.2,-1.2 -3.15,-1.2 -4.35,0 l -16.82,16.82 c -8.19,8.19 -8.19,21.46 0,29.65 l 16.82,16.82 c 1.2,1.2 3.15,1.2 4.35,0 l 29.48,-29.48 c 1.2,-1.2 1.2,-3.15 0,-4.35 z"
         id="path897" /></g></g></svg>
